<svg width="24" height="22" viewBox="0 0 24 22" fill="none" xmlns="http://www.w3.org/2000/svg">
<path d="M23.25 6.5C23.25 5.00816 22.6574 3.57742 21.6025 2.52252C20.5476 1.46763 19.1168 0.875 17.625 0.875C15.1875 0.875 12.7875 2.45 12 4.625C11.2125 2.4125 8.8125 0.875 6.375 0.875C4.90879 0.874479 3.50032 1.44648 2.44963 2.46914C1.39895 3.49181 0.789099 4.88431 0.75 6.35V6.5C0.751103 7.07258 0.839623 7.64164 1.0125 8.1875C2.2875 12.95 8.025 17.7875 12 21.125C15.975 17.825 21.675 12.6125 22.95 8.225C23.0316 7.96741 23.0943 7.70421 23.1375 7.4375V7.325C23.1808 7.06457 23.2059 6.80143 23.2125 6.5375L23.25 6.5Z" fill="#E11A42"/>
</svg>
